<svg class="home__blob" viewBox="0 0 200 200" xmlns="http://www.w3.org/2000/svg">
    <mask id="mask0" mask-type="alpha">
        <path d="M47.4,-60.9C62.6,-54.2,77,-41.9,83.7,-26.1C90.4,-10.2,89.4,9.3,81.1,23.7C72.7,38.1,57,47.4,42.2,58.7C27.5,70,13.7,83.2,-1.3,85.1C-16.4,86.9,-32.8,77.3,-42.9,64.5C-53,51.7,-56.7,35.7,-64,19.4C-71.4,3,-82.2,-13.6,-79.9,-27.6C-77.6,-41.6,-62.2,-53,-46.7,-59.7C-31.2,-66.3,-15.6,-68.3,0.2,-68.6C16.1,-69,32.2,-67.7,47.4,-60.9Z" transform="translate(100 100)" />
    </mask>
    <g mask="url(#mask0)">
        <path d="M47.4,-60.9C62.6,-54.2,77,-41.9,83.7,-26.1C90.4,-10.2,89.4,9.3,81.1,23.7C72.7,38.1,57,47.4,42.2,58.7C27.5,70,13.7,83.2,-1.3,85.1C-16.4,86.9,-32.8,77.3,-42.9,64.5C-53,51.7,-56.7,35.7,-64,19.4C-71.4,3,-82.2,-13.6,-79.9,-27.6C-77.6,-41.6,-62.2,-53,-46.7,-59.7C-31.2,-66.3,-15.6,-68.3,0.2,-68.6C16.1,-69,32.2,-67.7,47.4,-60.9Z" transform="translate(100 100)" />
        <image class="home__blob-image" xlink:href="img/perfil.png">
    </g> 
</svg>